<svg fill="none" height="16" viewBox="0 0 16 16" width="16" xmlns="http://www.w3.org/2000/svg"><g fill="#213f7d"><path d="m15.5 2h-6.5v2h6.5c.1326 0 .2598-.05268.3536-.14645.0937-.09376.1464-.22094.1464-.35355v-1c0-.13261-.0527-.25979-.1464-.35355-.0938-.09377-.221-.14645-.3536-.14645zm-15 2h5.5v-2h-5.5c-.132608 0-.259785.05268-.353553.14645-.0937686.09376-.146447.22094-.146447.35355v1c0 .13261.0526784.25979.146447.35355.093768.09377.220945.14645.353553.14645zm0 5h9.5v-2h-9.5c-.132608 0-.259785.05268-.353553.14645-.0937686.09376-.146447.22094-.146447.35355v1c0 .13261.0526784.25979.146447.35355.093768.09377.220945.14645.353553.14645zm15-2h-2.5v2h2.5c.1326 0 .2598-.05268.3536-.14645.0937-.09376.1464-.22094.1464-.35355v-1c0-.13261-.0527-.25979-.1464-.35355-.0938-.09377-.221-.14645-.3536-.14645zm0 5h-10.5v2h10.5c.1326 0 .2598-.0527.3536-.1464.0937-.0938.1464-.221.1464-.3536v-1c0-.1326-.0527-.2598-.1464-.3536-.0938-.0937-.221-.1464-.3536-.1464zm-15.5.5v1c0 .1326.0526784.2598.146447.3536.093768.0937.220945.1464.353553.1464h1.5v-2h-1.5c-.132608 0-.259785.0527-.353553.1464-.0937686.0938-.146447.221-.146447.3536z" opacity=".4"/><path d="m8.5 1h-1c-.13261 0-.25979.05268-.35355.14645-.09377.09376-.14645.22094-.14645.35355v3c0 .13261.05268.25979.14645.35355.09376.09377.22094.14645.35355.14645h1c.13261 0 .25979-.05268.35355-.14645.09377-.09376.14645-.22094.14645-.35355v-3c0-.13261-.05268-.25979-.14645-.35355-.09376-.09377-.22094-.14645-.35355-.14645zm4 5h-1c-.1326 0-.2598.05268-.3536.14645-.0937.09376-.1464.22094-.1464.35355v3c0 .13261.0527.25979.1464.35355.0938.09377.221.14645.3536.14645h1c.1326 0 .2598-.05268.3536-.14645.0937-.09376.1464-.22094.1464-.35355v-3c0-.13261-.0527-.25979-.1464-.35355-.0938-.09377-.221-.14645-.3536-.14645zm-8 5h-1c-.13261 0-.25979.0527-.35355.1464-.09377.0938-.14645.221-.14645.3536v3c0 .1326.05268.2598.14645.3536.09376.0937.22094.1464.35355.1464h1c.13261 0 .25979-.0527.35355-.1464.09377-.0938.14645-.221.14645-.3536v-3c0-.1326-.05268-.2598-.14645-.3536-.09376-.0937-.22094-.1464-.35355-.1464z"/></g></svg>