<svg width="22" height="16" viewBox="0 0 22 16" fill="none" xmlns="http://www.w3.org/2000/svg">
<path d="M13.9977 5.92075C13.9977 6.05582 14.0328 6.3302 14.1178 6.62094C14.2032 6.91305 14.3346 7.20568 14.5182 7.3895L14.6578 7.52914V7.71762C14.6578 8.62669 14.324 9.22223 13.8395 9.64438C13.3612 10.061 12.7391 10.3054 12.1735 10.5243C11.8334 10.6753 11.52 10.7781 11.1959 10.9579L11.109 11.0067L10.694 10.2596L10.6432 10.1678L10.736 10.1209C11.1072 9.93487 11.4771 9.78714 11.8434 9.64047C12.4329 9.40079 12.8843 9.20467 13.1998 8.93735C13.5009 8.68227 13.68 8.35963 13.7203 7.85434C13.4856 7.55203 13.3318 7.17893 13.233 6.84653C13.1352 6.5171 13.0886 6.222 13.068 6.06528C12.6737 5.44962 12.4774 4.8153 12.5846 4.34164C12.4941 3.98616 12.4406 3.51784 12.5006 3.06039C12.561 2.60047 12.7373 2.14095 13.1158 1.82602C13.3499 1.15108 13.8423 0.663703 14.4772 0.365082L14.4811 0.364105L14.6696 0.29184C15.5699 -0.0185624 16.7245 0.0493855 17.7838 0.486176L18.0094 0.585785L18.0153 0.587738V0.588715L18.3453 0.770355L18.4205 0.812347L18.3903 0.893402L18.2809 1.18637L18.2799 1.18539C18.1112 1.66009 18.244 2.03117 18.4264 2.46957H18.4254C18.6452 2.98303 18.8763 3.63014 18.5455 4.42758C18.6116 4.85958 18.4547 5.48484 18.0621 6.09946C18.0416 6.25627 17.996 6.55185 17.8981 6.88168C17.7991 7.21474 17.6444 7.58881 17.4088 7.89145C17.4323 8.3953 17.6113 8.7174 17.9166 8.9725C18.2366 9.23976 18.6966 9.43604 19.2858 9.67563C19.8884 9.91319 20.595 10.1945 21.1471 10.7039C21.7045 11.2185 22.1002 11.9606 22.1002 13.1053V13.5721H14.567V12.6385H21.151C21.0642 11.9943 20.8034 11.5808 20.4371 11.2762C20.044 10.9494 19.5282 10.7435 18.9567 10.5223C18.3911 10.3034 17.7689 10.059 17.2906 9.64243C16.8063 9.2203 16.4733 8.62447 16.4733 7.71567V7.52719L16.6119 7.38852C16.7947 7.20576 16.9174 6.91437 16.9987 6.62094C17.0791 6.33045 17.115 6.05212 17.1334 5.9061V5.77817L17.15 5.75278L17.2213 5.64828C17.418 5.32623 17.5244 5.05129 17.5768 4.85043C17.603 4.75004 17.6157 4.66919 17.6198 4.61118C17.6218 4.58206 17.621 4.55976 17.6198 4.54477C17.6183 4.52671 17.6163 4.52728 17.6207 4.53598V4.535L17.5475 4.38852L17.528 4.34848L17.5446 4.30649L17.6168 4.12387L17.6217 4.11313L17.6676 4.02036C17.8711 3.56323 17.7172 3.21671 17.5426 2.72739V2.72641C17.3664 2.30452 17.1854 1.82963 17.2711 1.2186C16.4298 0.887116 15.5397 0.864838 14.8932 1.17075L14.8893 1.1727C14.4065 1.37979 14.1322 1.72127 13.9928 2.20786L13.9567 2.35239L13.9479 2.3895L13.9156 2.41098L13.8063 2.48227C13.6046 2.6222 13.4913 2.90667 13.4557 3.24496C13.4205 3.57922 13.4645 3.94082 13.5514 4.202L13.5543 4.20883V4.20981L13.5905 4.35629L13.6002 4.39243L13.5836 4.42563L13.5143 4.56235C13.5113 4.57428 13.508 4.60662 13.5123 4.66293C13.5169 4.72201 13.5301 4.80094 13.5582 4.89828C13.6005 5.04466 13.6757 5.23093 13.8014 5.45102L13.944 5.68246L13.9508 5.69223H13.9498L13.9869 5.76547L13.9977 5.78696V5.92075Z" fill="#DF18FF" stroke="#DF18FF" stroke-width="0.2"/>
<path d="M7.22363 0.760193C7.87989 0.760193 8.40008 0.900747 8.81445 1.14496C9.22883 1.38925 9.53199 1.73341 9.75879 2.13031C10.0967 2.72173 10.2696 3.43756 10.3965 4.12738L10.5127 4.80316V4.80414C10.6045 5.39237 10.6949 5.95278 10.8477 6.42035C11.0002 6.88695 11.2096 7.24478 11.5273 7.44672L11.8555 7.62836L11.9502 7.68109L11.8906 7.77094L11.6699 8.10101C11.153 8.87552 10.0063 9.59827 8.81836 9.94476C9.2264 11.1325 10.2109 11.4794 11.2891 11.8745H11.29C11.9098 12.0933 12.5973 12.3372 13.127 12.7866C13.6634 13.2417 14.0332 13.9023 14.0332 14.9389V15.4057H-0.0996094V14.9389C-0.0996044 13.9022 0.26994 13.2417 0.811523 12.7866C1.34566 12.3377 2.04121 12.0938 2.67969 11.8754L3.08887 11.7231C4.00038 11.3711 4.79456 10.9515 5.15039 9.94476C3.96318 9.59803 2.81656 8.8761 2.30078 8.10199L2.08105 7.77191L2.02051 7.68207L2.11523 7.62933L2.43945 7.44965L2.55957 7.36176C2.82242 7.14532 2.97265 6.84706 3.06152 6.48773C3.16393 6.0735 3.1826 5.58887 3.20117 5.07269C3.21952 4.4172 3.23734 3.66512 3.49707 3.01801C3.75845 2.36708 4.26233 1.8261 5.22949 1.5766C5.5379 1.27095 6.14614 0.760283 7.22363 0.760193ZM7.22168 1.69086C6.41962 1.69086 6.04074 2.07004 5.78906 2.32172L5.69922 2.41156L5.67676 2.41937L5.56738 2.45551L5.55664 2.45941V2.45844C5.22817 2.52941 4.98107 2.63959 4.79395 2.78265C4.60762 2.92518 4.47571 3.10489 4.38086 3.32269C4.18848 3.76468 4.1504 4.35864 4.13184 5.11371V5.11469C4.11387 5.60761 4.09576 6.13965 3.9834 6.63617C3.87777 7.10274 3.68514 7.54256 3.3291 7.89789C3.88016 8.44507 4.87865 8.98437 5.81055 9.15668H5.81152L6.17871 9.22992L6.27637 9.24945L6.25684 9.34711L6.18457 9.71429L6.18359 9.71625C5.95833 10.7299 5.47697 11.3743 4.88574 11.8237C4.44573 12.158 3.9458 12.3827 3.4541 12.5746L2.96777 12.7592C2.41229 12.9632 1.92397 13.1327 1.55273 13.3979C1.21374 13.6401 0.975082 13.9622 0.887695 14.4721H13.0781C12.9907 13.9793 12.7532 13.657 12.4141 13.4106C12.1355 13.2083 11.7902 13.0572 11.4014 12.9086L10.999 12.7592C10.3608 12.522 9.65777 12.2695 9.06641 11.8237C8.4704 11.3743 7.98884 10.73 7.78223 9.71527V9.71429L7.70898 9.34711L7.68945 9.24945L7.78809 9.22992L8.15527 9.15668H8.15625L8.33887 9.11859C9.21746 8.91341 10.1239 8.40714 10.6387 7.89496C10.3147 7.54083 10.1061 7.09442 9.95801 6.60687C9.79984 6.086 9.70652 5.51078 9.61523 4.94379V4.94281C9.4316 3.89467 9.25967 3.08102 8.91895 2.52777C8.75053 2.25446 8.54204 2.04751 8.27148 1.90765C7.99999 1.76733 7.65935 1.6909 7.22168 1.69086Z" fill="#DF18FF" stroke="#DF18FF" stroke-width="0.2"/>
</svg>
